<?xml version="1.0" encoding="utf-8"?>
<!-- Generator: Adobe Illustrator 16.0.0, SVG Export Plug-In . SVG Version: 6.00 Build 0)  -->
<!DOCTYPE svg PUBLIC "-//W3C//DTD SVG 1.1//EN" "http://www.w3.org/Graphics/SVG/1.1/DTD/svg11.dtd">
<svg version="1.1" id="Layer_1" xmlns="http://www.w3.org/2000/svg" xmlns:xlink="http://www.w3.org/1999/xlink" x="0px" y="0px"
	 width="52.25px" height="57px" viewBox="0 0 52.25 57" enable-background="new 0 0 52.25 57" xml:space="preserve">
<g id="ABvDY3.tif">
	<g>
		<path fill="#FFFFFF" d="M10.554,17c10.38,0,20.761,0,31.142,0c-0.033,0.078-0.043,0.181-0.101,0.228
			c-1.088,0.906-2.181,1.806-3.273,2.707c-3.756,3.099-7.511,6.2-11.269,9.298c-0.588,0.485-1.182,0.486-1.759,0.01
			c-4.864-4.009-9.727-8.019-14.587-12.03C10.642,17.159,10.604,17.072,10.554,17z"/>
		<path fill="#FFFFFF" d="M41.798,37.744c0,0.085,0,0.17,0,0.256C31.35,38,20.9,38,10.452,38c0-0.085,0-0.171,0-0.256
			c0.057-0.035,0.119-0.063,0.17-0.105c2.947-2.378,5.894-4.758,8.84-7.138c0.895-0.723,1.791-1.445,2.692-2.173
			c0.806,0.666,1.6,1.324,2.396,1.98c0.594,0.489,1.275,0.656,2.033,0.54c0.656-0.101,1.146-0.492,1.631-0.902
			c0.618-0.522,1.249-1.029,1.881-1.547c0.08,0.059,0.149,0.106,0.215,0.159c3.319,2.665,6.638,5.33,9.958,7.993
			C40.775,36.955,41.289,37.346,41.798,37.744z"/>
		<path fill="#FFFFFF" d="M10.452,36.105c0-5.805,0-11.61,0-17.415c3.554,2.925,7.109,5.851,10.679,8.788
			c-0.075,0.066-0.129,0.118-0.187,0.165c-2.646,2.14-5.292,4.279-7.939,6.416C12.157,34.744,11.303,35.423,10.452,36.105z"/>
		<path fill="#FFFFFF" d="M41.798,18.742c0,5.788,0,11.576,0,17.363c-0.076-0.054-0.155-0.104-0.227-0.163
			c-2.941-2.36-5.88-4.721-8.82-7.082c-0.537-0.431-1.072-0.863-1.623-1.306c0.069-0.061,0.118-0.106,0.169-0.148
			c0.822-0.68,1.644-1.358,2.466-2.038C36.442,23.16,39.12,20.951,41.798,18.742z"/>
	</g>
</g>
</svg>
