<?xml version="1.0" encoding="utf-8"?>
<!-- Generator: Adobe Illustrator 16.0.0, SVG Export Plug-In . SVG Version: 6.00 Build 0)  -->
<!DOCTYPE svg PUBLIC "-//W3C//DTD SVG 1.1//EN" "http://www.w3.org/Graphics/SVG/1.1/DTD/svg11.dtd">
<svg version="1.1" id="Layer_1" xmlns="http://www.w3.org/2000/svg" xmlns:xlink="http://www.w3.org/1999/xlink" x="0px" y="0px"
	 width="52.25px" height="57px" viewBox="0 0 52.25 57" enable-background="new 0 0 52.25 57" xml:space="preserve">
<g id="_x34_a6rKh.tif">
	<g>
		<path fill="#FFFFFF" d="M27.561,12.443c1.861,0,3.723,0,5.584,0c0,1.739,0,3.479,0,5.238c-0.175,0-0.301,0-0.428,0
			c-0.953,0-1.906-0.002-2.86,0.001c-0.925,0.003-1.419,0.481-1.452,1.412c-0.013,0.372-0.003,0.744-0.003,1.116
			c0,0.684,0,1.366,0,2.09c1.622,0,3.208,0,4.8,0c0,0.146,0.01,0.25-0.001,0.354c-0.161,1.583-0.329,3.165-0.481,4.749
			c-0.023,0.251-0.14,0.297-0.359,0.295c-1.176-0.007-2.351-0.003-3.525-0.003c-0.136,0-0.271,0-0.439,0c0,5.09,0,10.133,0,15.192
			c-2.116,0-4.203,0-6.326,0c0-5.063,0-10.106,0-15.192c-0.186,0-0.333,0.002-0.481,0c-0.848-0.011-1.696-0.022-2.543-0.033
			c0-1.792,0-3.583,0-5.375c0.995,0,1.99,0,3.019,0c0-0.877-0.026-1.723,0.007-2.566c0.034-0.878,0.027-1.776,0.21-2.629
			c0.508-2.365,1.925-3.91,4.335-4.456C26.929,12.565,27.246,12.507,27.561,12.443z"/>
	</g>
</g>
</svg>
