<?xml version="1.0" encoding="utf-8"?>
<!-- Generator: Adobe Illustrator 16.0.0, SVG Export Plug-In . SVG Version: 6.00 Build 0)  -->
<!DOCTYPE svg PUBLIC "-//W3C//DTD SVG 1.1//EN" "http://www.w3.org/Graphics/SVG/1.1/DTD/svg11.dtd">
<svg version="1.1" id="Layer_1" xmlns="http://www.w3.org/2000/svg" xmlns:xlink="http://www.w3.org/1999/xlink" x="0px" y="0px"
	 width="52.25px" height="57px" viewBox="0 0 52.25 57" enable-background="new 0 0 52.25 57" xml:space="preserve">
<g>
	<path fill="#FFFFFF" d="M29.294,32.216c0.98,1.42,1.03,3.039,1.015,4.68c-0.019,1.987-0.003,3.974-0.001,5.961
		c0.001,0.638-0.015,0.655-0.635,0.655c-2.6,0-5.201,0-7.801,0c-0.58,0-0.632-0.056-0.631-0.638c0.002-1.268,0-2.535,0-3.87
		c-0.448,0.046-0.898,0.094-1.349,0.138c-2.197,0.213-4.112-0.349-5.594-2.066c-0.208-0.24-0.373-0.519-0.544-0.788
		C13,35.1,12.269,33.896,11.487,32.726c-0.242-0.362-0.616-0.636-0.929-0.951c-0.165-0.166-0.328-0.333-0.522-0.53
		c0.542-0.353,1.062-0.257,1.553-0.181c1.228,0.189,2.058,0.949,2.715,1.958c0.327,0.502,0.666,1.014,1.085,1.434
		c1.346,1.347,2.979,1.781,4.831,1.361c1.194-0.271,0.962-0.145,1.141-1.235c0.119-0.729,0.32-1.422,0.716-2.051
		c0.066-0.104,0.121-0.216,0.201-0.363c-0.523-0.104-1.013-0.186-1.496-0.298c-1.915-0.441-3.681-1.188-5.079-2.624
		c-1.481-1.521-2.283-3.343-2.338-5.482c-0.047-1.797-0.036-3.588,0.371-5.354c0.261-1.133,0.733-2.148,1.562-2.99
		c0.128-0.13,0.204-0.44,0.144-0.61c-0.59-1.681-0.509-3.343,0.036-5.015c0.094-0.288,0.193-0.357,0.48-0.278
		c1.053,0.288,1.955,0.831,2.707,1.61c0.513,0.531,0.983,1.105,1.493,1.683c1.301-0.94,2.84-0.973,4.358-1.062
		c1.679-0.098,3.36-0.071,5.01,0.287c0.641,0.139,1.25,0.422,1.82,0.621c0.669-0.636,1.36-1.283,2.041-1.941
		C34,10.12,34.728,9.75,35.549,9.53c0.314-0.084,0.474-0.009,0.58,0.297c0.565,1.627,0.66,3.254,0.026,4.885
		c-0.093,0.238-0.156,0.462,0.062,0.671c1.11,1.062,1.662,2.398,1.779,3.896c0.124,1.582,0.273,3.177,0.195,4.755
		c-0.144,2.93-1.599,5.13-4.125,6.609c-1.354,0.793-2.834,1.229-4.379,1.458c-0.088,0.013-0.178,0.022-0.265,0.041
		C29.387,32.15,29.356,32.18,29.294,32.216z"/>
</g>
</svg>
