<?xml version="1.0" encoding="utf-8"?>
<!-- Generator: Adobe Illustrator 16.0.0, SVG Export Plug-In . SVG Version: 6.00 Build 0)  -->
<!DOCTYPE svg PUBLIC "-//W3C//DTD SVG 1.1//EN" "http://www.w3.org/Graphics/SVG/1.1/DTD/svg11.dtd">
<svg version="1.1" id="Layer_1" xmlns="http://www.w3.org/2000/svg" xmlns:xlink="http://www.w3.org/1999/xlink" x="0px" y="0px"
	 width="52.25px" height="57px" viewBox="0 0 52.25 57" enable-background="new 0 0 52.25 57" xml:space="preserve">
<path fill="#FFFFFF" d="M45.279,15.234c0,0.008,0,0.016,0,0.024c-0.018,0.018-0.038,0.034-0.053,0.055
	c-0.316,0.418-0.618,0.85-0.952,1.254c-0.734,0.887-1.568,1.674-2.498,2.353c-0.163,0.119-0.216,0.229-0.209,0.434
	c0.045,1.359-0.042,2.71-0.269,4.053c-0.184,1.093-0.445,2.167-0.79,3.219c-0.527,1.613-1.226,3.147-2.104,4.599
	c-1.14,1.884-2.525,3.563-4.185,5.014c-1.143,0.999-2.379,1.86-3.716,2.577c-1.339,0.718-2.745,1.275-4.211,1.674
	c-0.923,0.25-1.856,0.451-2.807,0.561c-0.568,0.066-1.139,0.112-1.708,0.165c-0.224,0.021-0.449,0.033-0.674,0.048
	c-0.469,0-0.938,0-1.406,0c-0.03-0.005-0.061-0.013-0.091-0.015c-0.757-0.067-1.516-0.109-2.269-0.206
	c-1.085-0.14-2.148-0.391-3.193-0.713c-1.808-0.556-3.509-1.343-5.107-2.354c-0.019-0.013-0.034-0.031-0.064-0.059
	c1.979,0.214,3.91,0.076,5.807-0.455c1.893-0.53,3.617-1.4,5.156-2.623c-3.603-0.106-6.137-2.638-6.911-5.185
	c1.108,0.204,2.202,0.17,3.285-0.125c-1.722-0.409-3.158-1.272-4.267-2.656c-1.109-1.383-1.638-2.968-1.644-4.756
	c1.05,0.575,2.147,0.886,3.324,0.918c-1.58-1.132-2.636-2.619-3.067-4.521c-0.431-1.903-0.142-3.704,0.808-5.407
	c4.033,4.756,9.134,7.368,15.368,7.798c-0.011-0.066-0.018-0.104-0.023-0.14c-0.05-0.347-0.12-0.691-0.146-1.04
	c-0.057-0.753,0.002-1.501,0.179-2.238c0.431-1.786,1.389-3.226,2.865-4.313c1.113-0.821,2.367-1.287,3.749-1.404
	c0.783-0.066,1.556-0.018,2.321,0.16c1.437,0.334,2.667,1.036,3.695,2.092c0.05,0.051,0.091,0.064,0.161,0.05
	c1.581-0.323,3.071-0.886,4.47-1.689c0.05-0.03,0.103-0.055,0.175-0.091c-0.592,1.761-1.672,3.104-3.208,4.094
	c0.077,0.001,0.148-0.009,0.22-0.018c0.811-0.108,1.608-0.279,2.384-0.535C44.215,15.649,44.744,15.434,45.279,15.234z"/>
</svg>
